<?xml version="1.0" encoding="UTF-8" standalone="no"?>
<!DOCTYPE svg PUBLIC "-//W3C//DTD SVG 1.1//EN" "http://www.w3.org/Graphics/SVG/1.1/DTD/svg11.dtd">
<svg width="auto" height="auto" viewBox="0 0 98 85" xmlns="http://www.w3.org/2000/svg" xmlns:xlink="http://www.w3.org/1999/xlink">
  <defs>
    <pattern id="squares" viewBox="0,0,98,85" width="10%" height="10%">
      <rect x="0" y="00" width="10" height="10" rx="2" style="fill: #39d353"></rect>
      <rect x="0" y="11" width="10" height="10" rx="2" style="fill: #006d32"></rect>
      <rect x="0" y="22" width="10" height="10" rx="2" style="fill: #0e4429"></rect>
      <rect x="0" y="33" width="10" height="10" rx="2" style="fill: #161b22"></rect>
      <rect x="0" y="44" width="10" height="10" rx="2" style="fill: #39d353"></rect>
      <rect x="0" y="55" width="10" height="10" rx="2" style="fill: #39d353"></rect>
      <rect x="0" y="66" width="10" height="10" rx="2" style="fill: #161b22"></rect>

      <rect x="11" y="00" width="10" height="10" rx="2" style="fill: #0e4429"></rect>
      <rect x="11" y="11" width="10" height="10" rx="2" style="fill: #39d353"></rect>
      <rect x="11" y="22" width="10" height="10" rx="2" style="fill: #0e4429"></rect>
      <rect x="11" y="33" width="10" height="10" rx="2" style="fill: #39d353"></rect>
      <rect x="11" y="44" width="10" height="10" rx="2" style="fill: #161b22"></rect>
      <rect x="11" y="55" width="10" height="10" rx="2" style="fill: #006d32"></rect>
      <rect x="11" y="66" width="10" height="10" rx="2" style="fill: #0e4429"></rect>

      <rect x="22" y="00" width="10" height="10" rx="2" style="fill: #39d353"></rect>
      <rect x="22" y="11" width="10" height="10" rx="2" style="fill: #39d353"></rect>
      <rect x="22" y="22" width="10" height="10" rx="2" style="fill: #006d32"></rect>
      <rect x="22" y="33" width="10" height="10" rx="2" style="fill: #0e4429"></rect>
      <rect x="22" y="44" width="10" height="10" rx="2" style="fill: #0e4429"></rect>
      <rect x="22" y="55" width="10" height="10" rx="2" style="fill: #0e4429"></rect>
      <rect x="22" y="66" width="10" height="10" rx="2" style="fill: #39d353"></rect>

      <rect x="33" y="00" width="10" height="10" rx="2" style="fill: #39d353"></rect>
      <rect x="33" y="11" width="10" height="10" rx="2" style="fill: #0e4429"></rect>
      <rect x="33" y="22" width="10" height="10" rx="2" style="fill: #0e4429"></rect>
      <rect x="33" y="33" width="10" height="10" rx="2" style="fill: #0e4429"></rect>
      <rect x="33" y="44" width="10" height="10" rx="2" style="fill: #006d32"></rect>
      <rect x="33" y="55" width="10" height="10" rx="2" style="fill: #39d353"></rect>
      <rect x="33" y="66" width="10" height="10" rx="2" style="fill: #39d353"></rect>

      <rect x="44" y="00" width="10" height="10" rx="2" style="fill: #39d353"></rect>
      <rect x="44" y="11" width="10" height="10" rx="2" style="fill: #0e4429"></rect>
      <rect x="44" y="22" width="10" height="10" rx="2" style="fill: #006d32"></rect>
      <rect x="44" y="33" width="10" height="10" rx="2" style="fill: #39d353"></rect>
      <rect x="44" y="44" width="10" height="10" rx="2" style="fill: #0e4429"></rect>
      <rect x="44" y="55" width="10" height="10" rx="2" style="fill: #0e4429"></rect>
      <rect x="44" y="66" width="10" height="10" rx="2" style="fill: #39d353"></rect>

      <rect x="55" y="00" width="10" height="10" rx="2" style="fill: #39d353"></rect>
      <rect x="55" y="11" width="10" height="10" rx="2" style="fill: #0e4429"></rect>
      <rect x="55" y="22" width="10" height="10" rx="2" style="fill: #0e4429"></rect>
      <rect x="55" y="33" width="10" height="10" rx="2" style="fill: #006d32"></rect>
      <rect x="55" y="44" width="10" height="10" rx="2" style="fill: #161b22"></rect>
      <rect x="55" y="55" width="10" height="10" rx="2" style="fill: #39d353"></rect>
      <rect x="55" y="66" width="10" height="10" rx="2" style="fill: #161b22"></rect>

      <rect x="66" y="00" width="10" height="10" rx="2" style="fill: #161b22"></rect>
      <rect x="66" y="11" width="10" height="10" rx="2" style="fill: #39d353"></rect>
      <rect x="66" y="22" width="10" height="10" rx="2" style="fill: #39d353"></rect>
      <rect x="66" y="33" width="10" height="10" rx="2" style="fill: #0e4429"></rect>
      <rect x="66" y="44" width="10" height="10" rx="2" style="fill: #0e4429"></rect>
      <rect x="66" y="55" width="10" height="10" rx="2" style="fill: #006d32"></rect>
      <rect x="66" y="66" width="10" height="10" rx="2" style="fill: #0e4429"></rect>

      <rect x="77" y="00" width="10" height="10" rx="2" style="fill: #006d32"></rect>
      <rect x="77" y="11" width="10" height="10" rx="2" style="fill: #0e4429"></rect>
      <rect x="77" y="22" width="10" height="10" rx="2" style="fill: #161b22"></rect>
      <rect x="77" y="33" width="10" height="10" rx="2" style="fill: #39d353"></rect>
      <rect x="77" y="44" width="10" height="10" rx="2" style="fill: #0e4429"></rect>
      <rect x="77" y="55" width="10" height="10" rx="2" style="fill: #161b22"></rect>
      <rect x="77" y="66" width="10" height="10" rx="2" style="fill: #006d32"></rect>

      <rect x="88" y="00" width="10" height="10" rx="2" style="fill: #006d32"></rect>
      <rect x="88" y="11" width="10" height="10" rx="2" style="fill: #39d353"></rect>
      <rect x="88" y="22" width="10" height="10" rx="2" style="fill: #0e4429"></rect>
      <rect x="88" y="33" width="10" height="10" rx="2" style="fill: #39d353"></rect>
      <rect x="88" y="44" width="10" height="10" rx="2" style="fill: #161b22"></rect>
      <rect x="88" y="55" width="10" height="10" rx="2" style="fill: #0e4429"></rect>
      <rect x="88" y="66" width="10" height="10" rx="2" style="fill: #39d353"></rect>
    </pattern>
  </defs>

    <rect width="100%" height="100%" fill="#0d1117"></rect>
    <rect width="100%" height="100%" fill="url(#squares)"></rect>
</svg>
